<?xml version="1.0" encoding="UTF-8"?><svg id="Layer_1_copy" xmlns="http://www.w3.org/2000/svg" width="328" height="252" viewBox="0 0 328 252"><defs><style>.cls-1,.cls-2,.cls-3,.cls-4,.cls-5,.cls-6,.cls-7,.cls-8,.cls-9,.cls-10,.cls-11{stroke:#000;}.cls-1,.cls-2,.cls-3,.cls-4,.cls-5,.cls-6,.cls-7,.cls-8,.cls-9,.cls-10,.cls-11,.cls-12{stroke-miterlimit:10;}.cls-1,.cls-6,.cls-9{fill:none;}.cls-1,.cls-7,.cls-8,.cls-10{stroke-width:.75px;}.cls-2{fill:#4d4d4d;}.cls-2,.cls-11{stroke-width:.25px;}.cls-3,.cls-4,.cls-9{stroke-width:.5px;}.cls-3,.cls-7,.cls-13{fill:#d7b399;}.cls-4,.cls-5{fill:#b3b3b3;}.cls-14{fill:#42210b;opacity:.8;}.cls-14,.cls-15,.cls-13{stroke-width:0px;}.cls-15{opacity:.4;}.cls-15,.cls-11{fill:#333;}.cls-8{fill:#414833;}.cls-16{opacity:.7;}.cls-10{fill:#d47646;}.cls-12{fill:#e6e6e6;opacity:.9;stroke:#4d4d4d;}</style></defs><path class="cls-6" d="M290.41,144.32s7.37,7.21,7.37,10.41"/><path class="cls-5" d="M133.67,127.37l-111.9-6.74c-2.4-.2-7.52-.32-9.59,2.64-1.05,1.51-.91,3.25-.83,4.1,1.15,12.2,3.9,36.56,3.9,36.56l6.52,46.18c.36,4.08,1.52,8.78,5.09,10.73,1.14.62,2.16.76,2.51.82,4.91.72,51.46,8.85,116.25,20.21l7.6.96c3.1.24,6.33.03,7.31-1.72.24-.42.29-.84.3-1.17.07-3.51-4.22-65.28-5.43-82.75l-1.09-21.17c-.19-1.02-.83-3.75-3.3-5.84-1.01-.85-2.04-1.36-2.84-1.66-4.83-.38-9.67-.77-14.5-1.15Z"/><path class="cls-12" d="M76.68,158.5c-2.31-.47-4.86,1.1-4.86,1.1,0,0-3.4,1.84-3.4,4.79s3.99,4.64,3.99,4.64l24.19,3.83s6.8.37,7.77-3.68c.97-4.05-2.91-5.89-2.91-5.89l-1.84-.83s.87-3.22-1.56-4.32c-2.43-1.1-5.83-.37-5.83-.37-.04.34-1.52-2.76-4.86-3.68-3.23-.89-6.17-.07-6.17-.07,0,0-3.54.81-4.03,2.28s-.49,2.21-.49,2.21Z"/><g class="cls-16"><path class="cls-11" d="M37.25,173.49l2.93,9.87,7.43-8.28,2.99.46-2.67,10.8-2.07-.32,2.22-8.99h-.05s-7.34,8.19-7.34,8.19l-1.86-.29-2.9-9.77h-.05s-2.22,8.98-2.22,8.98l-2.07-.32,2.67-10.8,2.98.46Z"/><path class="cls-11" d="M57.25,176.57l2.93,9.87,7.43-8.28,2.99.46-2.67,10.8-2.07-.32,2.22-8.99h-.05s-7.34,8.19-7.34,8.19l-1.86-.29-2.9-9.77h-.05s-2.22,8.98-2.22,8.98l-2.07-.32,2.67-10.8,2.98.46Z"/><path class="cls-11" d="M79.85,180.05c2.53.39,4.37,1.11,5.52,2.17s1.52,2.45,1.09,4.19c-.22.91-.58,1.69-1.05,2.34-.48.65-1.1,1.17-1.86,1.55-.76.38-1.67.62-2.73.72-1.06.1-2.27.04-3.63-.17l-5.63-.87,2.67-10.8,5.63.87ZM77.66,189.67c.24.04.55.07.93.1s.78.03,1.22,0c.44-.03.88-.11,1.33-.23.45-.12.87-.31,1.27-.57.4-.26.76-.61,1.08-1.05.32-.44.57-.99.73-1.65.16-.65.21-1.24.14-1.78s-.27-1.02-.62-1.45c-.35-.43-.84-.78-1.49-1.08-.64-.29-1.47-.52-2.48-.67l-3.68-.57-2.07,8.38,3.63.56Z"/><path class="cls-11" d="M95.66,184.94c.33-.43.76-.78,1.3-1.05.53-.27,1.16-.45,1.88-.53.72-.09,1.51-.07,2.37.07.7.11,1.35.28,1.94.51s1.08.51,1.47.84c.4.33.68.7.85,1.13.17.42.2.89.07,1.39-.12.47-.33.88-.64,1.2-.31.33-.69.61-1.12.84-.44.23-.92.43-1.46.58-.53.16-1.08.31-1.63.44-.55.12-1.11.25-1.66.36-.55.12-1.07.26-1.54.41-.48.16-.89.34-1.26.55s-.63.48-.8.79l8.36,1.29-.28,1.13-10.63-1.64c.23-.62.54-1.14.92-1.55.38-.41.82-.75,1.31-1.01.5-.27,1.03-.49,1.62-.66s1.18-.33,1.81-.46c.76-.18,1.43-.34,2.01-.5.58-.16,1.07-.33,1.48-.52.4-.19.73-.41.97-.67.25-.26.41-.57.51-.94.07-.29.05-.57-.06-.83-.11-.26-.29-.5-.53-.72-.24-.22-.54-.4-.9-.55-.36-.15-.76-.26-1.18-.32-.57-.09-1.07-.08-1.52,0-.44.09-.83.25-1.15.46-.32.21-.58.47-.77.77-.19.3-.32.61-.39.94l-1.95-.3c.09-.55.3-1.04.63-1.47Z"/><path class="cls-11" d="M107.69,188.82c.13-.42.31-.82.54-1.21.22-.38.49-.74.81-1.07.32-.33.71-.6,1.18-.81.47-.21,1.02-.35,1.66-.42.64-.07,1.39-.04,2.23.09.84.13,1.55.32,2.11.58.56.25,1.01.55,1.34.88.33.33.57.7.71,1.1s.22.81.24,1.23c.02.42,0,.85-.08,1.28-.07.43-.16.84-.26,1.23-.1.39-.21.8-.35,1.22-.14.42-.31.82-.54,1.21s-.49.74-.81,1.06c-.32.32-.71.59-1.18.8-.46.21-1.02.35-1.65.41s-1.38.03-2.24-.1c-.84-.13-1.55-.32-2.11-.57-.57-.25-1.01-.54-1.35-.87s-.57-.7-.71-1.09c-.14-.39-.22-.8-.25-1.22-.02-.42,0-.85.08-1.28.07-.43.16-.84.26-1.23.1-.39.21-.8.35-1.22ZM109.14,191.7c-.08.51-.08.99.02,1.46.1.47.34.89.72,1.27.39.37.99.62,1.82.75.83.13,1.51.08,2.04-.16.53-.23.96-.55,1.27-.96.32-.41.55-.86.71-1.35.16-.49.29-.94.39-1.34.06-.26.13-.55.2-.87s.11-.64.12-.97c0-.33-.01-.65-.07-.98-.06-.32-.18-.62-.38-.88-.2-.27-.47-.5-.82-.7-.35-.2-.8-.34-1.35-.43-.55-.08-1.04-.09-1.45,0s-.78.22-1.09.41c-.31.19-.57.42-.77.71-.21.28-.38.58-.53.88-.15.31-.26.62-.35.93-.09.32-.16.61-.23.87-.1.4-.19.86-.28,1.36Z"/><path class="cls-11" d="M121.2,188.87c.33-.43.76-.78,1.3-1.05.53-.27,1.16-.45,1.88-.53.72-.09,1.51-.07,2.37.07.7.11,1.35.28,1.94.51.59.23,1.08.51,1.47.84.4.33.68.7.85,1.13.17.42.2.89.07,1.39-.12.47-.33.88-.64,1.2-.31.33-.69.61-1.12.84-.44.23-.92.43-1.46.58s-1.08.31-1.63.44c-.56.12-1.11.25-1.66.36-.55.12-1.07.26-1.54.41-.48.16-.89.34-1.26.55-.36.21-.63.48-.8.79l8.36,1.29-.28,1.13-10.63-1.64c.23-.62.54-1.14.92-1.55.38-.41.82-.75,1.31-1.01.5-.27,1.03-.49,1.62-.66.58-.17,1.18-.33,1.81-.46.76-.18,1.43-.34,2.01-.5.58-.16,1.07-.33,1.48-.52.4-.19.73-.41.97-.67.25-.25.41-.57.51-.94.07-.29.05-.57-.06-.83-.11-.26-.28-.5-.53-.72-.24-.22-.54-.4-.9-.55-.36-.15-.76-.26-1.18-.32-.57-.09-1.07-.08-1.52,0-.44.09-.83.25-1.15.46-.32.21-.58.47-.77.77-.19.3-.32.61-.39.94l-1.95-.3c.09-.55.3-1.04.63-1.47Z"/><path class="cls-11" d="M143.35,197.26l-.28,1.13-2.2-.34-.62,2.51-1.84-.28.62-2.51-7.14-1.1.31-1.24,9.14-5.83,1.56.24-1.75,7.08,2.2.34ZM140.6,191.39h-.05s-6.71,4.41-6.71,4.41l5.47.84,1.3-5.25Z"/><path class="cls-11" d="M31.5,202.66l1.9-7.68-4.23-.65.25-1.03c.55.08,1.09.14,1.63.16.53.02,1.03,0,1.49-.09.46-.09.87-.24,1.22-.46.36-.22.64-.52.84-.91l1.49.23-2.65,10.73-1.95-.3Z"/><path class="cls-11" d="M42.92,202.68l-.41,1.68-2.55-.39.41-1.68,2.55.39Z"/><path class="cls-11" d="M60.55,197.45c-.64-.46-1.53-.78-2.66-.95-.46-.07-.92-.11-1.38-.12-.46,0-.88.03-1.26.12-.38.09-.7.24-.97.44-.27.21-.44.48-.53.84-.08.33,0,.63.25.88.25.25.6.48,1.07.69.47.21,1,.4,1.61.59.61.18,1.22.37,1.85.58.63.2,1.24.42,1.83.65.59.23,1.11.5,1.55.81.44.31.77.66.98,1.06.21.4.25.87.12,1.4-.14.57-.46,1.04-.95,1.38-.49.35-1.07.6-1.75.77s-1.41.24-2.19.24c-.79,0-1.55-.06-2.3-.17-.92-.14-1.77-.35-2.55-.63s-1.44-.62-1.99-1.02c-.54-.4-.94-.87-1.18-1.41-.24-.53-.28-1.13-.12-1.79l2.07.32c-.11.45-.07.87.11,1.23.19.37.47.69.86.97s.85.51,1.41.7,1.14.33,1.75.43c.49.08.99.12,1.5.14.51.02.99-.02,1.42-.1.43-.08.8-.23,1.11-.45s.51-.52.61-.91c.09-.37.02-.7-.22-.98-.24-.28-.59-.53-1.05-.75-.46-.22-.99-.43-1.6-.62-.61-.19-1.22-.38-1.85-.58-.63-.2-1.24-.4-1.84-.63-.6-.22-1.12-.48-1.57-.76-.45-.28-.78-.61-1-.99-.22-.37-.27-.81-.14-1.3.13-.54.42-.99.85-1.34.44-.35.96-.61,1.59-.78.62-.17,1.31-.26,2.05-.28.74-.02,1.49.03,2.24.15.84.13,1.61.32,2.29.56.69.24,1.27.55,1.74.91.47.37.81.79,1.02,1.26.21.48.25,1.02.14,1.61l-2.07-.32c.07-.79-.22-1.42-.86-1.88Z"/><path class="cls-11" d="M73.12,208.55c-1,.31-2.17.36-3.52.15-.95-.15-1.75-.37-2.39-.68-.65-.31-1.16-.68-1.55-1.12-.38-.44-.63-.92-.75-1.47-.11-.54-.11-1.11,0-1.71.15-.6.42-1.12.82-1.57.4-.45.89-.82,1.48-1.11.59-.29,1.25-.48,1.98-.57s1.5-.08,2.31.04c1.06.16,1.9.44,2.52.84.62.39,1.09.85,1.41,1.36.31.51.48,1.04.51,1.59.03.55-.03,1.06-.17,1.53l-8.89-1.37c-.1.34-.12.68-.06,1,.06.33.22.64.47.92.25.28.59.53,1.03.75.44.21.98.37,1.62.47.83.13,1.53.11,2.12-.07.59-.17,1.03-.5,1.33-.99l1.93.3c-.48.84-1.21,1.41-2.21,1.72ZM73.89,203.46c-.11-.3-.29-.57-.54-.81s-.56-.45-.94-.63c-.38-.18-.81-.31-1.3-.38-.51-.08-.98-.09-1.41-.04-.43.05-.82.16-1.16.32-.34.16-.63.36-.86.6s-.4.51-.51.81l6.82,1.05c.04-.31.01-.61-.1-.91Z"/><path class="cls-11" d="M80.69,202.12l-.28,1.15h.05c1.11-.74,2.49-.99,4.16-.73.73.11,1.38.32,1.92.61.55.29.88.7,1.01,1.22.5-.36,1.11-.61,1.82-.74s1.45-.14,2.23-.02c.6.09,1.13.22,1.59.38.46.16.84.36,1.14.59s.51.51.63.83c.12.32.13.68.03,1.08l-1.41,5.73-1.95-.3,1.27-5.13c.06-.24.08-.47.08-.69,0-.22-.08-.42-.21-.6-.13-.18-.33-.34-.61-.48-.28-.14-.65-.24-1.13-.31-.96-.15-1.77-.08-2.41.19-.64.28-1.04.72-1.19,1.32l-1.2,4.87-1.95-.3,1.27-5.13c.06-.25.09-.49.07-.71-.02-.22-.09-.42-.22-.61-.13-.18-.33-.34-.59-.47-.26-.13-.61-.23-1.06-.3-.57-.09-1.07-.09-1.51,0-.44.09-.82.22-1.12.39-.31.17-.54.36-.71.57-.17.21-.28.39-.31.54l-1.2,4.87-1.95-.3,1.93-7.82,1.84.28Z"/><path class="cls-11" d="M105.04,213.47c-1,.31-2.17.36-3.52.15-.95-.15-1.75-.37-2.39-.68-.65-.31-1.16-.68-1.55-1.12-.39-.44-.63-.92-.75-1.47-.11-.54-.11-1.11,0-1.71.15-.59.42-1.12.82-1.57s.89-.82,1.48-1.11c.59-.29,1.25-.48,1.98-.57s1.5-.08,2.31.04c1.06.16,1.9.44,2.52.84.62.39,1.09.85,1.41,1.36.31.51.48,1.04.51,1.59.03.55-.03,1.06-.17,1.53l-8.89-1.37c-.1.34-.12.68-.06,1,.06.33.22.64.46.92.25.28.59.53,1.03.75.44.21.98.37,1.62.47.83.13,1.53.11,2.12-.07.59-.17,1.03-.5,1.33-.99l1.93.3c-.48.84-1.21,1.41-2.21,1.72ZM105.81,208.38c-.11-.3-.29-.57-.54-.81-.25-.24-.56-.45-.94-.63-.38-.18-.81-.31-1.3-.38-.51-.08-.98-.09-1.41-.04-.43.05-.82.16-1.16.32-.34.16-.63.36-.86.6-.23.24-.4.51-.51.81l6.82,1.05c.04-.31.01-.61-.1-.91Z"/><path class="cls-11" d="M110.77,213.06c.14.22.34.42.61.58.27.16.59.3.95.41s.74.19,1.14.25c.31.05.63.08.98.1.34.02.67.01.97-.02.3-.04.57-.12.79-.25s.36-.31.42-.56c.08-.33-.05-.61-.39-.84-.34-.23-.78-.44-1.33-.64s-1.15-.39-1.8-.58c-.65-.19-1.25-.41-1.78-.65-.53-.24-.96-.54-1.27-.88s-.41-.76-.28-1.27c.1-.39.31-.71.65-.95.34-.24.74-.42,1.2-.53s.97-.17,1.52-.17c.55,0,1.08.03,1.6.11.67.1,1.28.24,1.83.4.55.16,1.02.37,1.41.63.39.25.68.56.86.92.18.36.24.78.17,1.26l-1.95-.3c.03-.26-.02-.48-.14-.67-.13-.19-.31-.36-.54-.5s-.51-.26-.81-.35c-.3-.09-.62-.17-.94-.21-.29-.04-.59-.08-.9-.09-.31-.02-.59,0-.85.03-.26.04-.49.11-.67.21-.18.1-.3.25-.35.46-.05.22.02.42.22.61s.47.35.82.5c.34.15.74.3,1.18.43.44.14.89.28,1.33.42.47.15.93.31,1.37.48.44.17.82.37,1.14.59.32.22.56.48.72.76.16.29.19.62.1.99-.12.47-.36.84-.74,1.11-.38.27-.83.46-1.36.58-.53.12-1.11.17-1.73.15-.62-.02-1.23-.07-1.83-.16-.66-.1-1.27-.24-1.85-.43-.58-.18-1.07-.41-1.47-.69-.41-.28-.71-.61-.9-.99s-.24-.81-.15-1.3l1.95.3c-.05.28-.01.54.12.76Z"/><path class="cls-11" d="M127.34,209.3l-.28,1.13-2.37-.36-1.2,4.86c-.04.15-.05.28-.03.37.02.1.07.18.17.25.09.07.24.12.42.17.19.04.43.09.74.14l.9.14-.28,1.13-1.49-.23c-.5-.08-.93-.17-1.28-.27-.35-.1-.62-.23-.81-.38-.19-.16-.31-.35-.37-.59-.05-.24-.03-.54.06-.9l1.23-4.98-2.02-.31.28-1.13,2.02.31.58-2.34,1.95.3-.58,2.34,2.37.36Z"/><path class="cls-11" d="M136.09,218.25c-1,.31-2.17.36-3.52.15-.95-.15-1.75-.37-2.39-.68-.65-.31-1.16-.68-1.55-1.12s-.63-.92-.75-1.47c-.11-.54-.11-1.11,0-1.71.15-.6.42-1.12.82-1.57.4-.45.89-.82,1.48-1.11.59-.29,1.25-.48,1.98-.57s1.5-.08,2.31.04c1.06.16,1.9.44,2.52.84.62.39,1.09.85,1.41,1.36.31.51.48,1.04.51,1.59.03.55-.03,1.06-.17,1.53l-8.89-1.37c-.1.34-.12.68-.06,1s.22.64.46.92.59.53,1.03.75c.44.21.98.37,1.62.47.83.13,1.54.11,2.13-.07.59-.17,1.03-.5,1.33-.99l1.93.3c-.48.84-1.21,1.41-2.21,1.72ZM136.86,213.16c-.11-.3-.29-.57-.54-.81-.25-.24-.56-.45-.94-.63-.38-.18-.81-.31-1.3-.38-.51-.08-.98-.09-1.41-.04-.43.05-.82.16-1.16.32-.34.16-.63.36-.86.6-.23.24-.4.51-.51.81l6.82,1.05c.04-.31.01-.61-.1-.91Z"/><path class="cls-11" d="M143.59,211.81l-.41,1.65h.05c.63-.56,1.33-.93,2.09-1.13.76-.2,1.67-.2,2.72-.02l-.34,1.36c-.78-.12-1.46-.15-2.05-.1-.59.06-1.08.19-1.48.42-.4.22-.73.51-.98.88-.25.36-.44.8-.56,1.3l-.86,3.48-1.95-.3,1.93-7.82,1.84.28Z"/></g><path class="cls-4" d="M160.54,241.12l69.94-21.47s5.98-3.83,0-4.99-72.43-18.98-72.43-18.98l2.49,45.43Z"/><path class="cls-2" d="M160.09,236.17l35.79-11.57s8.35-2.35,1.16-3.39c-3.84-.55-13.48-2-21.64-3.23-7.14-1.07-13.15-1.98-13.15-1.98l-3.22.04,1.06,20.13Z"/><path class="cls-1" d="M226.42,94.73c3.06,2.21,7.53,4.87,13.39,6.76,2.42.78,8.64,2.74,15.69,2.33,2.75-.16,5.05-.64,5.46-.73,2.87-.62,5.15-1.49,6.78-2.23"/><path class="cls-10" d="M199.5,102.89l8.48-57.15c.62-2.51,4.13-16.4,8.6-20.87.41-.41,2.6-2.51,4.99-4.73,1.04-.96,2.11-1.94,3.52-3.13,1.37-1.16,2.45-2,2.61-2.13,1.31-1.02,9.24-7.18,16.9-5.62,0,0,6.97,2.55,6.97,2.55h0s5.83-2.18,9.42-1.64c9.39,1.39,16.58,2.98,19.54,4.42,11.6,5.62,16.85,14.55,19.29,18.69,1.08,1.83,4.52,7.98,5.86,16.18.42,2.56.54,5.38.8,11.02.29,6.48.26,11.38.25,12.71-.09,9.55.28,10.52-.85,18.11-.44,2.97-.19,13.65.95,18.38,1.13,4.73,6.34,19.18,6.34,19.18,0,0,2.93,4.99,2.27,9.46s-.44,2.97-.88,5.95-2.46,4.2-2.46,4.2l-2.02,1.22s-.25-10.68-4.98-15.94c-4.73-5.26-9.24-12.01-18-14.83-8.76-2.82-13.93-5.11-13.93-5.11,0,0-6.75-4.04-6.3-7.02.44-2.97.88-5.95.88-5.95,0,0,8.07-4.88,8.73-9.34s3.75-25.28,3.75-25.28c0,0,.66-4.46-6.08-8.5-6.75-4.04-13.49-8.08-18.44-11.85-4.95-3.77-8.1-7.28-7.88-8.77s-.91-6.22-.91-6.22c0,0-2.9,7.17-6.71,8.12-3.81.95-9.87,4.62-15.7,6.79-5.83,2.17-4.92,8.39-4.92,8.39l-2.43,16.36s-1.54,10.41,3.18,15.67c4.73,5.26,6.08,8.5,6.08,8.5,0,0,.03,12.16-8.73,9.34-8.76-2.82-18.19-1.18-18.19-1.18Z"/><path class="cls-7" d="M267.74,100.86s7.3-4.42,8.47-8.36,2.89-19.5,2.89-19.5l1.12-6.77c-.09-1.68-.52-2.91-.79-3.58-2.79-6.79-11.34-8.12-23.73-16.78-1.7-1.19-3.01-2.19-3.68-2.71-.89-1.03-1.78-2.05-2.68-3.08,0,0-.96-4.51-2.11-7.71-.22-.61-.46-.88-.71-.91-.51-.06-.75,1.33-2.13,3.99-.08.16-.15.3-.2.38-.76.73-2.1,1.94-4.01,3.18,0,0-11.77,5.15-11.77,5.15h0c-2.54,1.09-6.06,3.1-7.84,6.68-.73,1.47-.92,2.72-1.01,3.36-1.12,7.84-2.48,20.47-2.63,21.86.33,7.15,3.46,11.63,5.02,13.54,2.25,2.76,4.86,4.62,8.51,7.22,2.64,1.88,4.57,3.24,7.59,4.42,2.86,1.12,5.22,1.49,8.21,1.97,2.05.33,4.86.76,8.54.62,2.13-.08,3.75-.32,4.38-.42,2.1-.33,5.14-1.02,8.54-2.55Z"/><path class="cls-3" d="M221.46,104.33s4.75,16.74,9.75,19.02c5.01,2.28,8.49,2.8,13.73,3.58s12.05-3.15,12.05-3.15c0,0,4.76-2.07,8.92-6.08,4.16-4.01,4.04-6.18,4.04-6.18-1.7-1.78-2.27-3.31-2.48-4.38,0,0-.16-.81.01-4.62l.18-1.22-6.06,1.65-5.6.87-5.88-.08-6.15-.91-4.37-1.04-4.38-1.86-3.6-1.93-4.71-3.2-.73,2.47-.55,2.68-1.27,2.3-2.91,2.08Z"/><path class="cls-8" d="M310.07,149.69l-1.39,9.36-4.85,32.73s-1.12,12.83-2.35,15.87c-1.23,3.04-5.39,7.05-5.39,7.05-.77.86-1.9,2.04-3.39,3.35-.41.36-.73.63-.77.66-2.2,1.82-9.43,1.45-12.65,1.21,0,0,4.38-5.52,3.09-8.79s-4.11-8.32-5.63-10.09-4.56-5.3-8.05-5.82-6.97-1.03-10.69-.04l-3.71.99-25.98,6.94s-9.39,3.23-17.88.43c-8.49-2.8-20.25-7.63-20.25-7.63,0,0-3.26-2.03-6.75-2.54l-3.49-.52,8.41-32.68.45-3.02s.32-2.14-.2-2.58c-.23-.2-.64-.05-1.32.81-2.19,2.76-6.13,5.26-6.13,5.26l-24.06,18.02-2.9-40.52s.45-3.02,6.35-6.77c5.9-3.75,38.97-28.47,38.97-28.47l4.64-.43,4.8.04,4.97.61,3.79.96,2.94.4.85.46,1.07,4.79,2.59,6.55c.94,1.68,1.88,3.36,2.82,5.04,1.66,1.25,4.43,3.03,8.27,4.31,5.2,1.73,9.51,1.59,10.46,1.55,6.57-.29,11.15-2.93,13.1-4.22,0,0,5.9-3.75,8.09-6.51,2.19-2.76,2.42-4.27,2.42-4.27l3.67,1.98,5.39,2.1,8,2.75s5.09,2.06,6.54,3.33c1.44,1.27,5.27,4.66,5.27,4.66l4.81,5.49,2.84,3.73,1.87,4.67,1,4.71.39,4.1Z"/><polyline class="cls-9" points="194.55 130.25 192.33 145.24 188.58 154.57"/><path class="cls-9" d="M254.28,196.16s.45-3.02,2.64-5.78,4.38-5.52,6.35-6.77,2.42-4.27,2.42-4.27l5.15-34.7"/><path class="cls-9" d="M298.23,212.41s-2.95-16.34-9.25-21.9"/><path class="cls-9" d="M265.15,181.16s9.48-2.03,14.26,1.77"/><path class="cls-13" d="M189.98,215.31l-7.25,1.91-6.5-1.97-13.8-.54.52-7.19,12.83-10.07,13.85-2.1,22.79,8.7,25.53,11.21-26.96,6.75s-6.56,2.34-10.52.89-8.06-1.61-8.06-1.61c0,0-4.73-1.03-5.16-4.83"/><path class="cls-3" d="M186.37,198.22s-4.57,1.02-8.23,2.08-8.34,5.68-8.34,5.68c0,0-3.81,5.86-8.42,8.08s-.67-7.23-.67-7.23c0,0,11.21-10.37,13.06-11.5s16.77-4.18,16.77-4.18c0,0,3.48.6,4.8.9s4.45,2.23,4.45,2.23l6.45,3.02s9.76,4.05,11.39,4.86,5.66,1.18,7.33,1.18,7.23-1.6,7.23-1.6l7.4-3.06,8.83-3.63,6.31-2.67,6.05-2.42,3.37-.7,2.99-.04,2.96.33,2.57,1.14,4.31,4.61,3.41,6.52,2.36,5.99.25,1.51-.54,3.99-2.25,5.12-38.9.14s-9.13.73-10.97-.17-7.05.53-7.05.53l-12.3,3.08s-5.76,1.86-11.13.68-7.06-1.07-8.21-1.63-3.15-1.95-3.15-1.95l-1.25-2.66h0"/><path class="cls-3" d="M191.65,203.24s-8.19.88-11.89,3.14-11.94,9.32-11.94,9.32l-4.82,4.44s-5.55,3.39-3.58-1.34l1.97-4.73"/><path class="cls-3" d="M200.55,208.39s-11.81.74-15.51,3-11.13,7.97-11.13,7.97c0,0-3.74,3.46-5.51,2.19s-.17-6.2-.17-6.2"/><path class="cls-3" d="M199.34,217.95s-1.7-3.67-4.41-3.78-7.68,2.28-7.68,2.28c0,0-3.73.88-5.78.8s-3.66-.83-3.66-.83"/><path class="cls-1" d="M256.77,87.44s-14.95,11.08-23.33-5.03"/><path class="cls-9" d="M243.99,73.01c-.71,2.66-.17,5.1,1.34,6.07.24.15.88.52,1.71.46,1.67-.12,3.21-1.9,3.72-4.49"/><path class="cls-15" d="M230.85,63.28c-1.54,4.57,5.52,6.68,7.06,2.1,1.54-4.57-5.52-6.68-7.06-2.1Z"/><path class="cls-14" d="M225.36,58.83s5.91-2.04,10.89-.05c3.42,1.36,4.98,1.5,5.75.94.04-.03.67-.51.65-1.17-.04-1.21-2.22-2.06-3.08-2.39-4.37-1.71-8.57-.49-8.99-.36-2.46.75-4.17,2.05-5.23,3.04Z"/><path class="cls-14" d="M267.81,65.71s-4.7-3.97-10.07-3.86c-3.68.08-5.19-.34-5.68-1.13-.02-.04-.43-.71-.16-1.32.5-1.11,2.84-1.15,3.76-1.16,4.7-.07,8.12,2.55,8.46,2.81,1.99,1.56,3.09,3.38,3.69,4.67Z"/><path class="cls-15" d="M252.88,66.26c-1.54,4.57,5.52,6.68,7.06,2.1,1.54-4.57-5.52-6.68-7.06-2.1Z"/></svg>