<?xml version="1.0" encoding="UTF-8"?><svg xmlns="http://www.w3.org/2000/svg" width="484" height="406" viewBox="0 0 484 406"><defs><style>.cls-1{fill:#000;opacity:.4;}.cls-1,.cls-2{stroke-width:0px;}.cls-2,.cls-3,.cls-4{fill:#0e5e1f;}.cls-5{fill:#d47646;}.cls-5,.cls-6,.cls-7,.cls-8,.cls-9,.cls-10,.cls-3,.cls-11,.cls-12,.cls-13,.cls-14,.cls-15,.cls-4{stroke-miterlimit:10;}.cls-5,.cls-6,.cls-7,.cls-8,.cls-9,.cls-3,.cls-11,.cls-13,.cls-14,.cls-15,.cls-4{stroke:#000;}.cls-5,.cls-6,.cls-7,.cls-14{stroke-width:.5px;}.cls-6,.cls-13{fill:#d7b399;}.cls-7{fill:#998675;}.cls-8{fill:#29abe2;}.cls-9{fill:#b3b3b3;}.cls-10{stroke:#da6240;}.cls-10,.cls-3{stroke-width:.75px;}.cls-10,.cls-11,.cls-12{fill:none;}.cls-10,.cls-12{opacity:.9;}.cls-12{stroke:#4d4d4d;}.cls-16{opacity:.7;}.cls-14{fill:#4d4d4d;}.cls-15{fill:#333;stroke-width:.25px;}</style></defs><g id="Layer_1"><path class="cls-4" d="M319.72,352.18s101.14-17.4,112.09-23.12,20.79-13.41,20.79-33.92,1.41-83.32,1.41-83.32v-35.95s-1.41-12.76-14.06-20.45c-12.65-7.69-32.34-8.97-32.34-8.97h-37.8s-7.2,29.48-22.67,38.46-32.34-2.56-32.34-2.56l-32.34-23.07s-21.09,12.82-25.31,25.64-4.22,53.84-4.22,53.84l-21.09-38.46s-19.69,12.82-26.72,15.38-12.65,3.85-12.65,3.85c0,0,2.81,7.69,9.84,11.54s8.58,11.31,8.58,11.31l1.17,14.46s19.77,46.02,25.4,47.3"/><path class="cls-13" d="M229.89,201.53s4.76-17.92,4.76-23.05.32-16.18-4.76-22.19-7.9-11.14-7.9-11.14c0,0-5.43-3.85-4.82,1.28s3.42,11.54,4.82,14.1,5.62,7.69,1.41,7.69h-4.22s-1.3-3.33-2.06-8.07-2.16-9.87-3.57-12.44-2.81-5.13-4.22-5.13-4.22,1.28-2.81,5.13-.38,7.07-.38,7.07c0,0-2.43-1.94-3.84-.66s-2.81,2.56-2.81,5.13-4.22,1.28-5.62,5.13-1.41,16.75-1.41,16.75c0,0,2.81,10.17,5.62,15.3s7.03,19.23,7.03,19.23l24.77-14.13Z"/><path class="cls-3" d="M192.47,219.5s8.44-10.26,9.84-11.54,2.81,6.41,2.81,6.41l-10.17,4.61-2.48.52Z"/><path class="cls-6" d="M269.8,50.29s-14.06,7.69-14.06,16.66,4.22,20.51,5.62,26.92c1.41,6.41-1.41,14.64,1.41,19.5s11.29,25.37,23.22,33.06c11.93,7.69,16.15,8.97,25.99,6.41,9.84-2.56,23.9-16.66,23.9-16.66,0,0,11.25-12.82,11.25-15.38s2.81-11.54,2.81-11.54l-.43-7.09,1.83,7.09s4.22,3.85,5.62-3.85c1.41-7.69-2.81-15.38-2.81-15.38,0,0-9.84-35.89-29.53-41.02s-50.62-2.56-54.84,1.28Z"/><path class="cls-7" d="M234.65,178.48s11.25,14.1,12.65,14.1,4.22,0,4.22-2.56c0-.59-.82-2-2.09-3.82-.17-.25-.35-.5-.54-.76-.17-.24-.35-.49-.54-.74-4.52-6.16-12.3-15.19-12.3-15.19l-1.4-1.58v10.55Z"/><line class="cls-7" x1="247.3" y1="183.61" x2="243.09" y2="188.74"/><path class="cls-7" d="M217.71,144.04l-22.43-33.5s-2.81-5.13-5.62-5.13-1.41,5.13-1.41,5.13l21.09,32.05s4.42,4.82,5.73,8.82,4.22,15.37,4.22,15.37l-.1,1.45s5.62,0,5.62-1.28-3.86-7.91-4.74-9.72-1.78-6.61-1.78-6.61l-.57-6.57Z"/><path class="cls-11" d="M276.83,100.29s2.81,3.85,1.41,10.26c-1.41,6.41-5.62,11.72-1.41,13.55s11.25-2.01,11.25-2.01c0,0,1.41-1.28,4.22-1.28"/><path class="cls-11" d="M289.49,88.75s5.62-10.26,22.5-7.69"/><path class="cls-11" d="M260.76,87.14s7.73-3.33,16.36,4.62"/><path class="cls-11" d="M279.64,133.62s1.41-2.56,14.06-1.28,16.87-7.69,16.87-7.69"/><path class="cls-6" d="M311.98,152.84s5.62,8.97,4.22,19.23l-1.41,10.26s14.58,8.8,23.46,5.68,17.46-10.93,17.46-10.93l3.43-4.92-4.16-29.58s-6.93-26.97-5.98-30.15"/><path class="cls-11" d="M217.69,186.17s-5.72-5.3-1.21-10.6,7.52-6.62,9.03-9.27"/><path class="cls-11" d="M195.28,162.78s2.43,6.8,6.07,5.44,1.44-5.44,1.44-5.44c0,0,3.96,2.72,4.29,0s0-11.86,0-11.86"/><path class="cls-5" d="M260.09,179.12s-15.01-17.31-11.09-32.69,2.52-7.8,2.52-7.8c0,0-5.62,3.96-8.44-6.3s0-25.31,0-25.31c0,0-1.41-22.87,0-28.91,1.41-6.04,5.62-26.16,12.65-34.69s22.08-19.52,27.91-22.35c5.83-2.84,32.55-10.01,45.91-5.78,20.48,6.48,34.07,18.72,40.07,28.58,5.09,8.36,7.03,16.66,7.03,16.66.36,1.53.81,3.79,3.39,25.43.41,3.48.71,6.02,2.24,9.18,2.52,5.23,7.49,10.26,7.49,10.26h0v12.02s12.05,7.21,13.53,14.9c1.48,7.69,0,14.1,0,14.1h-33.5l-5.07,14.8c-1.65,3.19-3.29,6.37-4.94,9.56-3.49-17.84-6.97-35.68-10.46-53.52l.62-8.01,3.28.93s3.11.56,3.43-3.39c.32-3.95-.06-11.67-2.69-17.43-2.62-5.75-8.25-20.74-8.25-20.74,0,0-9.57-13.76-14.63-16.69-5.06-2.93-20.51-6.1-31.77-5.8-11.25.3-23.48,2.52-26.5,2.69s-13.77,10.2-13.77,10.2c0,0-3.27,3.98-3.3,9.15s4.29,20.62,4.29,20.62c0,0,1.91,9.59,1.61,13.09s-.3,6.07-.3,6.07c0,0,0,5.13,2.81,8.97s9.84,17.95,9.84,17.95c0,0,6.94,9.47,15.42,13.71,8.48,4.24,13.76,6.64,18.15,5.44,4.39-1.2,5.97,1.89,5.97,1.89,0,0,3.28,15.29,2.26,18.92s-1.02,7.47-1.02,7.47l-32.34-23.07s-20.83,15.38-22.37,19.87Z"/><path class="cls-11" d="M281.05,311.16s5.62.64,7.03-12.18c1.41-12.82,2.81-28.2,2.81-28.2"/><path class="cls-11" d="M287.21,319.47s88.05-11.52,96.49-15.36,18.28-3.85,18.28-14.1,1.41-74.35,2.81-80.76"/><path class="cls-11" d="M407.6,296.42s14.06,0,18.28,6.41"/><path class="cls-11" d="M410.41,290.01s14.06,1.28,15.47,5.13"/><path class="cls-11" d="M428.69,168.23s11.25,11.54,11.25,16.66"/><path class="cls-11" d="M428.69,160.74s6.62,3.64,7.53,7.49"/><line class="cls-11" x1="342.92" y1="268.21" x2="365.42" y2="286.16"/><path class="cls-11" d="M312.25,270.78l39.11,19.23s14.06,2.56,19.69,1.28"/><path class="cls-11" d="M320.27,314.95s.15-12.13-5.48-21.1-16.87-21.79-16.87-21.79c0,0-7.03-15.18-7.03-23.61"/><line class="cls-11" x1="252.93" y1="238.73" x2="264.18" y2="261.8"/><polygon class="cls-2" points="313.39 183.61 314.8 179.76 283.62 160.08 282.46 161.48 313.39 183.61"/><path class="cls-11" d="M314.21,182.75s2.93-4.94,2.46-7.81.57-5.72.05-8.78-1.14-4.61-1.14-4.61c0,0-31.72-3.58-33.12-2.3"/><polygon class="cls-2" points="371.74 147.08 356.78 154.69 360.24 174 371.74 147.08"/><line class="cls-8" x1="370.34" y1="147.08" x2="356.78" y2="154.8"/><path class="cls-10" d="M265.14,126.47s-6.33,8.97-3.52,16.66,12.55,19.87,12.55,19.87"/><path class="cls-10" d="M384.8,142.24s6.29-9,3.44-16.68c-2.85-7.68-12.64-19.82-12.64-19.82"/><path class="cls-10" d="M363.71,99.93s6.29-9,3.44-16.68c-2.85-7.68-12.64-19.82-12.64-19.82"/><path class="cls-10" d="M343.23,46.59s-5.37-9.48-14.09-11.09c-8.71-1.62-25.15,0-25.15,0"/><path class="cls-10" d="M256.09,90.6s-8.56,7.27-7.91,15.36c.65,8.09,6.79,22.08,6.79,22.08"/></g><g id="Layer_1_copy"><path class="cls-1" d="M299.88,87.98c-5.87,1.75-3.73,9.15,2.16,7.4,5.87-1.75,3.73-9.15-2.16-7.4Z"/><path class="cls-1" d="M269.21,91.2c-5.36-1.1-6.73,5.61-1.36,6.72s6.73-5.61,1.36-6.72Z"/><path class="cls-9" d="M184.73,232.96l-144.83-8.97s-12.91-3.85-13.48,8.97c-.58,12.82,5.05,48.71,5.05,48.71l8.44,61.53s-1.41,14.1,9.84,15.38,150.45,26.92,150.45,26.92l9.84,1.28s9.84,3.85,9.84-3.85-7.03-110.24-7.03-110.24l-1.41-28.2s-1.41-11.54-15.47-11.54h-11.25Z"/><path class="cls-9" d="M220.5,384.7l99.22-32.52s2.81-3.85-4.22-5.13-15.47-2.56-15.47-2.56c0,0-5.62,2.56-14.06,1.28s-7.03-2.56-7.03-2.56c0,0-8.44,0-11.25-1.28s-5.62-3.85-7.03-5.13-4.22,1.28-9.84,1.28-4.22-2.56-4.22-2.56c0,0-8.44,6.41-9.84,7.69s-7.03,2.56-7.03-1.28v-5.13s-4.22,6.41-7.03,6.41-3.26-9.4-3.26-9.4c0,0-2.22-5.72-1.59-9.06s2.65,59.95,2.65,59.95Z"/><path class="cls-14" d="M221.29,375.14l42.18-12.7s9.84-2.56,1.41-3.85c-4.5-.68-15.8-2.46-25.36-3.97-8.37-1.32-15.41-2.44-15.41-2.44h-3.78l.96,22.96Z"/><path class="cls-13" d="M300.03,344.49s3.52-7.05-2.11-13.46c-5.62-6.41-16.87-17.95-16.87-17.95,0,0-5.62-6.41-8.44-6.41s-8.44,1.28-8.44,1.28c0,0,5.58-1.02,7.03-1.28-.42,0-.97-.06-1.25-.41-.25-.31-.05-.69-.15-.87-1.41-2.56-12.65-2.56-12.65-2.56,0,0-8.73,1.7-13.51,2.77-4.77,1.07-13.21,8.76-13.21,8.76l-12.58,10.39,1.59,9.06s-.26,10.04,3.26,9.4,7.03-6.41,7.03-6.41c0,0,.02.02.7.64-.74,4.72-.01,6.5,1.09,7.05,3.18,1.57,11.97-5.88,11.97-5.88,1.27-1.24,2.54-2.49,3.81-3.73,1.79,2.25,3.5,2.95,4.78,3.16,2.5.4,7.4-1.59,7.4-1.59h0s4.69,2.28,7.51,3.56,6.31,2.5,10.18,3.17c3.88.67,10.65,2.82,10.65,2.82l12.21-1.51Z"/><path class="cls-11" d="M260.66,336.8s7.73-7.05,11.95-4.49,8.44,6.41,8.44,6.41"/><path class="cls-11" d="M247.3,334.87s18.28-12.82,33.75-11.54"/><path class="cls-11" d="M229.5,338.84s20.69-23.46,38.19-21.11"/><path class="cls-11" d="M219.28,333.96s21.65-25.14,39.97-22.63"/><path class="cls-2" d="M282.59,159.92c6.65-.23,13.96-.15,21.82.45,3.9.3,7.63.7,11.17,1.17,1.23,4.46,1.39,8.09,1.31,10.48-.17,5.67-1.8,9.63-1.69,10.69,0,0,0,.02,0,.02-.37.41-15.28-10.23-32.61-22.82Z"/><path class="cls-12" d="M110.96,274.44c-2.99-.63-6.29,1.47-6.29,1.47,0,0-4.4,2.45-4.4,6.38s5.16,6.18,5.16,6.18l31.3,5.1s8.8.49,10.06-4.91-3.77-7.85-3.77-7.85l-2.38-1.11s1.12-4.28-2.02-5.76-7.54-.49-7.54-.49c-.05.46-1.96-3.68-6.29-4.91-4.18-1.18-7.99-.1-7.99-.1,0,0-4.59,1.08-5.21,3.04s-.63,2.94-.63,2.94Z"/><g class="cls-16"><path class="cls-15" d="M59.93,294.4l3.79,13.15,9.62-11.03,3.86.61-3.45,14.39-2.67-.42,2.87-11.97h-.06s-9.5,10.91-9.5,10.91l-2.41-.38-3.76-13.02h-.06s-2.87,11.96-2.87,11.96l-2.67-.42,3.45-14.39,3.86.61Z"/><path class="cls-15" d="M85.82,298.51l3.79,13.15,9.62-11.03,3.86.61-3.45,14.39-2.67-.42,2.87-11.97h-.06s-9.5,10.91-9.5,10.91l-2.41-.38-3.76-13.02h-.06s-2.87,11.96-2.87,11.96l-2.67-.42,3.45-14.39,3.86.61Z"/><path class="cls-15" d="M115.07,303.15c3.27.52,5.65,1.48,7.14,2.89s1.96,3.27,1.41,5.58c-.29,1.21-.75,2.25-1.36,3.12-.62.87-1.42,1.56-2.41,2.07-.99.51-2.16.83-3.53.96-1.37.13-2.93.06-4.7-.22l-7.28-1.15,3.45-14.39,7.28,1.15ZM112.24,315.96c.32.05.72.1,1.2.14s1.01.04,1.57,0c.57-.04,1.14-.14,1.72-.3.58-.16,1.13-.41,1.65-.76.52-.35.98-.82,1.4-1.4.42-.58.73-1.32.95-2.2.21-.86.27-1.65.18-2.37s-.35-1.36-.8-1.93c-.45-.57-1.09-1.04-1.92-1.43-.83-.39-1.9-.69-3.21-.9l-4.76-.75-2.68,11.17,4.7.74Z"/><path class="cls-15" d="M135.53,309.66c.42-.57.98-1.04,1.68-1.4.69-.36,1.5-.6,2.44-.71.93-.12,1.95-.09,3.06.09.91.14,1.75.37,2.51.68s1.4.68,1.91,1.12c.51.44.88.94,1.1,1.5.22.57.26,1.18.1,1.86-.15.63-.43,1.17-.83,1.6-.4.44-.89.81-1.46,1.12-.57.31-1.2.57-1.88.78-.69.21-1.39.41-2.12.59-.72.17-1.44.33-2.15.49-.72.16-1.38.34-2,.55-.62.21-1.16.45-1.63.74s-.82.63-1.04,1.06l10.82,1.72-.36,1.51-13.76-2.18c.3-.83.7-1.52,1.19-2.06.49-.54,1.06-.99,1.7-1.35.64-.36,1.34-.65,2.09-.88s1.53-.43,2.34-.61c.98-.23,1.85-.46,2.6-.67.75-.21,1.39-.44,1.91-.69.52-.25.94-.55,1.26-.89.32-.34.54-.76.66-1.26.09-.39.07-.76-.07-1.11-.14-.35-.37-.67-.68-.96-.31-.29-.7-.53-1.17-.73-.47-.2-.98-.34-1.53-.43-.73-.12-1.39-.11-1.96.01-.57.13-1.07.33-1.49.61-.42.28-.75.62-1,1.02-.25.4-.42.82-.5,1.25l-2.53-.4c.12-.73.38-1.39.81-1.96Z"/><path class="cls-15" d="M151.11,314.82c.17-.56.41-1.09.69-1.61.29-.51.64-.99,1.05-1.42.41-.44.92-.8,1.52-1.08.6-.28,1.32-.47,2.15-.56.83-.09,1.8-.05,2.89.12,1.09.17,2,.43,2.73.77.73.34,1.31.73,1.74,1.18.43.44.73.93.91,1.46s.29,1.08.32,1.64c.03.56,0,1.13-.1,1.7-.1.57-.21,1.12-.33,1.64-.13.52-.28,1.07-.45,1.62-.18.56-.41,1.09-.69,1.61s-.64.98-1.05,1.41c-.41.43-.92.79-1.52,1.07-.6.28-1.31.46-2.14.55s-1.79.04-2.9-.14c-1.09-.17-2-.43-2.73-.76-.73-.33-1.31-.72-1.74-1.17s-.73-.93-.92-1.45c-.18-.52-.29-1.07-.32-1.63-.03-.56,0-1.13.1-1.7.1-.57.21-1.12.33-1.64.13-.52.28-1.06.45-1.62ZM152.98,318.67c-.11.67-.1,1.32.03,1.95.13.63.44,1.19.94,1.69.5.5,1.28.83,2.35,1,1.07.17,1.95.1,2.64-.21.69-.31,1.24-.73,1.65-1.28.41-.54.72-1.14.92-1.8.21-.66.38-1.25.51-1.79.08-.35.17-.74.26-1.16s.14-.86.16-1.29c.01-.44-.02-.87-.09-1.3-.07-.43-.23-.82-.49-1.18-.25-.35-.61-.66-1.06-.93-.45-.27-1.03-.46-1.75-.57-.71-.11-1.34-.11-1.88,0s-1.01.29-1.41.54c-.4.25-.73.56-1,.94-.27.38-.49.77-.68,1.18-.19.41-.34.82-.45,1.25-.11.42-.21.81-.29,1.16-.13.54-.25,1.14-.36,1.82Z"/><path class="cls-15" d="M168.59,314.9c.42-.57.98-1.04,1.68-1.4.69-.36,1.5-.59,2.44-.71.93-.12,1.95-.09,3.06.09.91.14,1.75.37,2.51.68.76.31,1.39.68,1.91,1.12.51.44.88.94,1.1,1.5.22.57.26,1.18.1,1.86-.15.63-.43,1.17-.83,1.6-.4.44-.89.81-1.45,1.12-.57.31-1.2.57-1.88.78s-1.39.41-2.12.59c-.72.17-1.44.33-2.15.48-.72.16-1.38.34-2,.55-.62.21-1.16.45-1.63.74-.47.28-.82.63-1.04,1.06l10.82,1.72-.36,1.51-13.76-2.18c.3-.83.7-1.52,1.19-2.06.49-.54,1.06-.99,1.7-1.35.64-.36,1.34-.65,2.09-.88.75-.23,1.53-.43,2.34-.61.98-.23,1.85-.46,2.6-.67.75-.21,1.39-.44,1.91-.69.52-.25.94-.55,1.26-.89.32-.34.54-.76.66-1.26.09-.39.07-.76-.07-1.11-.14-.35-.37-.67-.68-.96-.31-.29-.7-.53-1.17-.73-.47-.2-.98-.34-1.53-.43-.73-.12-1.39-.11-1.96.01-.58.13-1.07.33-1.49.61-.42.28-.75.62-1,1.02-.25.4-.42.82-.5,1.25l-2.53-.4c.11-.73.38-1.39.81-1.96Z"/><path class="cls-15" d="M197.25,326.07l-.36,1.51-2.85-.45-.8,3.35-2.38-.38.8-3.35-9.24-1.47.4-1.65,11.83-7.77,2.02.32-2.26,9.43,2.85.45ZM193.7,318.25h-.06s-8.69,5.87-8.69,5.87l7.07,1.12,1.68-6.99Z"/><path class="cls-15" d="M52.5,333.27l2.45-10.24-5.47-.87.33-1.37c.71.11,1.42.19,2.11.22.69.03,1.33,0,1.93-.12.59-.11,1.12-.32,1.58-.61.46-.29.82-.69,1.09-1.21l1.93.31-3.42,14.29-2.53-.4Z"/><path class="cls-15" d="M67.27,333.29l-.54,2.24-3.3-.52.54-2.24,3.3.52Z"/><path class="cls-15" d="M90.09,326.33c-.83-.61-1.98-1.04-3.44-1.27-.59-.09-1.19-.15-1.78-.16-.59-.01-1.14.04-1.63.16-.49.12-.91.31-1.25.59-.34.27-.57.65-.68,1.12-.11.44,0,.83.32,1.17.32.34.78.64,1.38.92.6.28,1.3.54,2.08.78.78.24,1.58.5,2.39.77.81.27,1.6.56,2.37.87.77.31,1.44.67,2.01,1.08.57.41.99.88,1.27,1.41.27.53.33,1.15.16,1.87-.18.77-.59,1.38-1.23,1.84-.64.46-1.39.8-2.27,1.02s-1.82.33-2.84.32c-1.02,0-2.01-.08-2.98-.23-1.19-.19-2.29-.47-3.3-.84s-1.87-.82-2.57-1.36c-.7-.54-1.21-1.16-1.53-1.87-.31-.71-.36-1.51-.16-2.38l2.67.42c-.14.6-.1,1.15.15,1.64.24.49.61.92,1.11,1.29s1.11.68,1.83.94,1.48.44,2.27.57c.63.1,1.28.16,1.95.18.66.02,1.28-.02,1.84-.14.56-.11,1.04-.31,1.44-.6s.66-.69.78-1.21c.12-.5.02-.93-.29-1.3-.31-.37-.77-.7-1.36-1-.6-.3-1.29-.57-2.07-.82-.78-.25-1.58-.51-2.39-.77-.81-.26-1.6-.54-2.38-.84-.77-.3-1.45-.63-2.03-1.01-.58-.38-1.01-.82-1.29-1.31-.28-.5-.34-1.08-.19-1.73.17-.73.54-1.32,1.11-1.78.56-.46,1.25-.81,2.05-1.03.81-.23,1.69-.35,2.65-.37.96-.02,1.93.04,2.9.2,1.09.17,2.08.42,2.97.74.89.32,1.64.73,2.25,1.21.61.49,1.05,1.05,1.32,1.69.27.64.33,1.35.18,2.15l-2.67-.42c.09-1.06-.28-1.9-1.11-2.51Z"/><path class="cls-15" d="M106.37,341.12c-1.29.41-2.81.48-4.55.2-1.23-.19-2.26-.5-3.1-.91-.84-.41-1.5-.91-2-1.49-.5-.58-.82-1.23-.97-1.95-.15-.72-.14-1.48,0-2.28.19-.79.54-1.49,1.06-2.09.51-.6,1.15-1.09,1.91-1.48.76-.38,1.61-.64,2.56-.77s1.94-.11,2.99.06c1.37.22,2.46.59,3.27,1.11.81.53,1.42,1.13,1.82,1.81.4.68.62,1.38.66,2.11.04.73-.03,1.41-.23,2.04l-11.5-1.82c-.13.45-.15.9-.07,1.34.08.44.28.85.6,1.23.32.38.77.71,1.33,1,.57.29,1.27.49,2.1.63,1.07.17,1.99.14,2.75-.09.77-.23,1.34-.67,1.72-1.32l2.5.4c-.62,1.12-1.57,1.88-2.86,2.29ZM107.36,334.33c-.14-.4-.37-.76-.7-1.08s-.73-.6-1.22-.84c-.49-.24-1.05-.41-1.68-.51-.65-.1-1.26-.12-1.82-.05-.56.07-1.06.21-1.5.42-.44.21-.81.47-1.12.8s-.52.68-.66,1.08l8.83,1.4c.06-.41.01-.81-.13-1.21Z"/><path class="cls-15" d="M116.16,332.55l-.37,1.53h.06c1.43-.99,3.23-1.32,5.39-.98.95.15,1.78.42,2.49.81.71.39,1.14.93,1.31,1.63.65-.48,1.43-.81,2.35-.99s1.88-.18,2.89-.02c.77.12,1.46.29,2.05.5.6.21,1.09.48,1.48.79s.66.68.82,1.1c.16.42.17.9.04,1.44l-1.83,7.64-2.53-.4,1.64-6.83c.08-.32.11-.63.1-.93-.01-.29-.1-.56-.27-.81-.17-.24-.43-.46-.79-.64-.36-.18-.84-.32-1.46-.42-1.25-.2-2.29-.11-3.12.26-.83.37-1.34.96-1.53,1.76l-1.56,6.49-2.53-.4,1.64-6.83c.08-.34.11-.65.09-.95-.02-.3-.12-.57-.28-.81-.17-.24-.42-.45-.76-.62-.34-.17-.8-.3-1.37-.39-.73-.12-1.39-.12-1.96,0-.57.12-1.06.29-1.45.52-.4.23-.7.48-.92.76-.22.28-.36.52-.41.72l-1.56,6.49-2.53-.4,2.5-10.42,2.38.38Z"/><path class="cls-15" d="M147.68,347.67c-1.29.41-2.81.47-4.55.2-1.23-.2-2.26-.5-3.1-.91-.84-.41-1.5-.91-2-1.49-.5-.58-.82-1.23-.97-1.95-.15-.72-.14-1.48,0-2.28.19-.79.54-1.49,1.06-2.09s1.15-1.09,1.91-1.48c.76-.38,1.61-.64,2.56-.77s1.94-.11,2.99.06c1.37.22,2.46.59,3.27,1.11.81.53,1.42,1.13,1.82,1.81.4.68.62,1.38.66,2.11.04.73-.03,1.41-.23,2.04l-11.5-1.82c-.13.45-.15.9-.07,1.34.08.44.28.85.6,1.22.32.38.77.71,1.33,1,.57.29,1.27.49,2.1.63,1.07.17,1.99.14,2.75-.09.77-.23,1.34-.67,1.72-1.32l2.5.4c-.62,1.12-1.57,1.88-2.86,2.29ZM148.67,340.88c-.14-.4-.37-.76-.7-1.08-.32-.32-.73-.6-1.22-.84-.49-.24-1.05-.41-1.68-.51-.65-.1-1.26-.12-1.82-.05-.56.07-1.06.21-1.5.42-.44.21-.81.47-1.12.8-.3.32-.52.68-.66,1.08l8.83,1.4c.06-.41.01-.81-.13-1.21Z"/><path class="cls-15" d="M155.09,347.12c.17.3.44.56.79.77.35.22.76.4,1.23.54s.96.26,1.48.34c.4.06.82.11,1.26.14.45.03.86.02,1.26-.03.39-.05.73-.16,1.02-.33s.47-.42.55-.74c.11-.44-.06-.82-.5-1.13-.44-.31-1.02-.59-1.73-.85s-1.49-.51-2.33-.77c-.84-.25-1.61-.54-2.31-.87-.69-.33-1.24-.72-1.65-1.17s-.53-1.02-.37-1.69c.13-.52.41-.95.84-1.27.44-.32.96-.56,1.56-.71s1.26-.23,1.97-.23c.71,0,1.4.04,2.08.15.87.14,1.66.32,2.37.53.71.22,1.32.5,1.82.83.51.34.88.75,1.11,1.22.24.48.31,1.04.21,1.68l-2.52-.4c.04-.34-.02-.64-.19-.9-.16-.26-.4-.48-.7-.67s-.65-.34-1.04-.47c-.39-.13-.8-.22-1.21-.29-.38-.06-.76-.1-1.16-.12-.4-.02-.76,0-1.11.04-.34.05-.63.14-.87.28-.24.14-.39.34-.45.61-.07.3.02.57.28.81s.61.47,1.06.67c.44.2.95.4,1.53.58.57.18,1.15.37,1.72.56.61.19,1.2.41,1.78.64.57.23,1.06.49,1.48.79.41.3.72.63.93,1.02.21.38.25.82.13,1.32-.15.63-.47,1.12-.96,1.48-.49.36-1.07.61-1.76.77-.69.16-1.43.22-2.24.2-.81-.02-1.6-.1-2.37-.22-.85-.14-1.65-.32-2.39-.57-.74-.24-1.38-.55-1.91-.92-.53-.37-.92-.81-1.17-1.31s-.31-1.09-.2-1.74l2.53.4c-.07.38-.02.72.16,1.02Z"/><path class="cls-15" d="M176.53,342.12l-.36,1.51-3.06-.49-1.55,6.47c-.05.2-.06.37-.04.5.02.13.09.24.21.33.12.09.31.16.55.22.24.06.56.12.96.18l1.16.18-.36,1.51-1.93-.31c-.65-.1-1.21-.22-1.66-.36-.45-.13-.8-.31-1.05-.51-.25-.21-.41-.47-.47-.79-.07-.32-.04-.72.07-1.2l1.59-6.63-2.62-.41.36-1.51,2.62.41.75-3.12,2.53.4-.75,3.12,3.06.49Z"/><path class="cls-15" d="M187.86,354.04c-1.29.41-2.81.47-4.55.2-1.23-.2-2.26-.5-3.1-.91-.84-.41-1.5-.91-2-1.49s-.82-1.23-.97-1.95c-.15-.72-.14-1.48,0-2.28.19-.79.54-1.49,1.06-2.09.51-.6,1.15-1.09,1.91-1.48.76-.38,1.61-.64,2.56-.77s1.94-.11,2.99.06c1.37.22,2.46.59,3.27,1.11.81.53,1.42,1.13,1.82,1.81.4.68.62,1.38.66,2.11.04.73-.03,1.41-.23,2.04l-11.5-1.82c-.13.45-.15.9-.07,1.34s.28.85.6,1.23.77.71,1.34,1c.57.29,1.27.49,2.1.63,1.07.17,1.99.14,2.75-.09.77-.23,1.34-.67,1.72-1.32l2.5.4c-.62,1.12-1.57,1.88-2.86,2.29ZM188.86,347.25c-.14-.4-.37-.76-.7-1.08-.32-.32-.73-.6-1.22-.84-.49-.24-1.05-.41-1.68-.51-.65-.1-1.26-.12-1.82-.05-.56.07-1.06.21-1.5.42-.44.21-.81.47-1.12.8-.3.32-.52.68-.66,1.08l8.83,1.4c.06-.41.01-.81-.13-1.21Z"/><path class="cls-15" d="M197.57,345.46l-.53,2.2h.06c.82-.74,1.72-1.24,2.71-1.51.99-.26,2.16-.27,3.52-.03l-.43,1.81c-1.01-.16-1.89-.2-2.65-.13-.76.08-1.4.26-1.92.55-.52.29-.95.68-1.27,1.17-.32.49-.56,1.06-.72,1.74l-1.11,4.64-2.53-.4,2.5-10.42,2.38.38Z"/></g></g></svg>