<?xml version="1.0" encoding="UTF-8"?><svg id="Layer_1" xmlns="http://www.w3.org/2000/svg" width="100" height="100" viewBox="0 0 100 100"><defs><style>.cls-1{fill:none;stroke:#000;stroke-linecap:round;stroke-linejoin:round;stroke-width:3px;}</style></defs><path class="cls-1" d="M68.65,95.57v-12.9c.17-2.14-.12-4.3-.87-6.32-.75-2.02-1.93-3.87-3.47-5.41,14.49-1.57,29.72-6.92,29.72-31.46,0-6.27-2.48-12.31-6.92-16.85,2.1-5.49,1.96-11.56-.42-16.94,0,0-5.45-1.57-18.05,6.65-10.58-2.79-21.73-2.79-32.31,0-12.6-8.22-18.05-6.65-18.05-6.65-2.37,5.39-2.52,11.45-.42,16.94-4.48,4.58-6.96,10.67-6.92,16.99,0,24.36,15.23,29.71,29.72,31.46-1.52,1.53-2.69,3.35-3.44,5.35-.75,2-1.05,4.13-.9,6.25v12.9"/><path class="cls-1" d="M36.34,86.58c-13.85,4.37-25.38,0-32.31-13.48"/></svg>