<?xml version="1.0" encoding="UTF-8"?><svg id="Layer_1" xmlns="http://www.w3.org/2000/svg" width="100" height="100" viewBox="0 0 100 100"><defs><style>.cls-1{fill:#333;}.cls-1,.cls-2,.cls-3{stroke-width:0px;}.cls-4{stroke:#fff;}.cls-4,.cls-5{fill:none;opacity:.8;stroke-miterlimit:10;stroke-width:3px;}.cls-2{fill:#1d9df0;}.cls-3{fill:#fff;}.cls-5{stroke:#02005b;}</style></defs><path class="cls-4" d="M8.5,52.99c0-20.99,16.57-38,37-38"/><path class="cls-5" d="M82.5,50.99c0,20.99-16.57,38-37,38"/><path class="cls-5" d="M45.5,88.99c-20.43,0-37-16.09-37-35.95"/><path class="cls-5" d="M45.5,14.99c20.43,0,37,16.09,37,35.95"/><circle class="cls-1" cx="45.5" cy="51.99" r="31"/><polygon class="cls-2" points="37.11 46.52 56.69 29.19 68.82 34.66 68.82 68.6 56.69 74.8 36.17 57.47 27.78 64.76 22.18 59.29 30.08 51.99 22.18 44.7 27.78 39.22 37.11 46.52"/><polygon class="cls-3" points="38.34 52.18 52.66 41.62 52.66 62.37 38.34 52.18"/></svg>