<?xml version="1.0" encoding="UTF-8"?><svg id="Layer_1" xmlns="http://www.w3.org/2000/svg" width="100" height="100" viewBox="0 0 100 100"><defs><style>.cls-1{fill:#333;}.cls-1,.cls-2{stroke-width:0px;}.cls-2{fill:#3164a9;}.cls-3{stroke:#fff;}.cls-3,.cls-4{fill:none;opacity:.8;stroke-miterlimit:10;stroke-width:3px;}.cls-4{stroke:#02005b;}</style></defs><circle class="cls-1" cx="47.3" cy="48.74" r="31"/><polygon class="cls-2" points="65.57 27.43 29.03 27.43 29.03 35.18 47.3 35.18 30.12 43.47 30.83 51.1 56.36 51.87 56.36 61.79 48.56 64.85 39.34 61.79 38.63 55.69 31.54 55.69 31.54 67.9 47.3 72.97 62.74 67.9 64.86 43.47 47.3 43.73 65.57 35.46 65.57 27.43"/><path class="cls-3" d="M10.3,49.74c0-20.99,16.57-38,37-38"/><path class="cls-4" d="M84.3,47.74c0,20.99-16.57,38-37,38"/><path class="cls-4" d="M47.3,85.74c-20.43,0-37-16.09-37-35.95"/><path class="cls-4" d="M47.3,11.74c20.43,0,37,16.09,37,35.95"/></svg>