<?xml version="1.0" encoding="UTF-8"?><svg id="Layer_1" xmlns="http://www.w3.org/2000/svg" width="100" height="100" viewBox="0 0 100 100"><defs><style>.cls-1{fill:#333;}.cls-1,.cls-2{stroke-width:0px;}.cls-2{fill:#d55937;}.cls-3{fill:none;opacity:.8;stroke:#02005b;stroke-miterlimit:10;stroke-width:3px;}</style></defs><circle class="cls-1" cx="46.3" cy="48.36" r="31"/><polygon class="cls-2" points="64.58 26.14 28.02 26.14 29.85 51.82 55.14 51.82 54.86 62.25 47.22 65.46 38.88 62.25 38.88 55.83 30.54 55.83 31.24 68.67 46.3 73.78 61.11 68.67 63.19 42.99 36.79 42.99 36.1 34.97 63.89 34.97 64.58 26.14"/><path class="cls-3" d="M9.3,49.36c0-20.99,16.57-38,37-38"/><path class="cls-3" d="M83.3,47.36c0,20.99-16.57,38-37,38"/><path class="cls-3" d="M46.3,85.36c-20.43,0-37-16.09-37-35.95"/><path class="cls-3" d="M46.3,11.36c20.43,0,37,16.09,37,35.95"/></svg>