<?xml version="1.0" encoding="UTF-8"?><svg id="Layer_1" xmlns="http://www.w3.org/2000/svg" width="100" height="100" viewBox="0 0 100 100"><defs><style>.cls-1{fill:#333;stroke-width:0px;}.cls-2{stroke:#fff;}.cls-2,.cls-3,.cls-4{stroke-miterlimit:10;}.cls-2,.cls-4{fill:none;opacity:.8;stroke-width:3px;}.cls-3{fill:#fff;stroke:#c92200;stroke-width:.5px;}.cls-4{stroke:#02005b;}</style></defs><path class="cls-2" d="M8.5,51.46c0-20.99,16.57-38,37-38"/><path class="cls-4" d="M82.5,49.46c0,20.99-16.57,38-37,38"/><path class="cls-2" d="M45.5,87.46c-20.43,0-37-16.09-37-35.95"/><path class="cls-4" d="M45.5,13.46c20.43,0,37,16.09,37,35.95"/><circle class="cls-1" cx="45.5" cy="50.46" r="31"/><polygon class="cls-3" points="57.57 36.9 58.98 29.84 32.34 29.84 23.5 66.43 31.61 66.43 35.57 50.38 54.73 50.38 38.4 65.79 41.24 71.08 63.95 69 65.37 61.94 50.47 63.22 66.79 49.1 67.5 44.61 37.69 43.96 38.4 37.55 57.57 36.9"/></svg>