<?xml version="1.0" encoding="UTF-8"?><svg id="Layer_1" xmlns="http://www.w3.org/2000/svg" width="100" height="100" viewBox="0 0 100 100"><defs><style>.cls-1{fill:#333;}.cls-1,.cls-2,.cls-3,.cls-4,.cls-5,.cls-6{stroke-width:0px;}.cls-2{fill:#1bbcfe;}.cls-3{fill:#08cf82;}.cls-4{fill:#ff7262;}.cls-5{fill:#f24f1d;}.cls-6{fill:#a259ff;}.cls-7{stroke:#ccc;}.cls-7,.cls-8{fill:none;opacity:.8;stroke-miterlimit:10;stroke-width:3px;}.cls-8{stroke:#02005b;}</style></defs><circle class="cls-1" cx="47.93" cy="46.5" r="31"/><rect class="cls-3" x="38.43" y="52.83" width="9.5" height="12.67"/><ellipse class="cls-3" cx="38.43" cy="59.17" rx="9.5" ry="6.33"/><rect class="cls-6" x="38.43" y="40.17" width="9.5" height="12.67"/><ellipse class="cls-6" cx="38.43" cy="46.5" rx="9.5" ry="6.33"/><rect class="cls-5" x="38.43" y="27.5" width="9.5" height="12.67"/><ellipse class="cls-5" cx="38.43" cy="33.83" rx="9.5" ry="6.33"/><rect class="cls-4" x="47.93" y="27.5" width="9.5" height="12.67" transform="translate(105.36 67.67) rotate(-180)"/><ellipse class="cls-4" cx="57.43" cy="33.83" rx="9.5" ry="6.33"/><ellipse class="cls-2" cx="55.39" cy="46.5" rx="7.46" ry="6.33"/><path class="cls-7" d="M10.93,46.92c0-20.99,16.57-38,37-38"/><path class="cls-8" d="M84.93,44.92c0,20.99-16.57,38-37,38"/><path class="cls-8" d="M47.93,82.92c-20.43,0-37-16.09-37-35.95"/><path class="cls-8" d="M47.93,8.92c20.43,0,37,16.09,37,35.95"/></svg>