<?xml version="1.0" encoding="UTF-8"?><svg id="Layer_1" xmlns="http://www.w3.org/2000/svg" width="100" height="100" viewBox="0 0 100 100"><defs><style>.cls-1{fill:#333;}.cls-1,.cls-2{stroke-width:0px;}.cls-2{fill:#74a643;}.cls-3{stroke:#fff;}.cls-3,.cls-4{fill:none;opacity:.8;stroke-miterlimit:10;stroke-width:3px;}.cls-4{stroke:#02005b;}</style></defs><circle class="cls-1" cx="48.3" cy="53.46" r="31"/><polygon class="cls-2" points="27.3 32.96 69.3 32.96 66.14 73.13 48.3 78.09 31.27 73.13 29.68 61 38.4 61 39.19 67.82 48.3 69.75 57.43 67.07 59.8 41.3 27.3 41.19 27.3 32.96"/><path class="cls-3" d="M11.3,54.46c0-20.99,16.57-38,37-38"/><path class="cls-4" d="M85.3,52.46c0,20.99-16.57,38-37,38"/><path class="cls-3" d="M48.3,90.46c-20.43,0-37-16.09-37-35.95"/><path class="cls-4" d="M48.3,16.46c20.43,0,37,16.09,37,35.95"/></svg>