<?xml version="1.0" encoding="UTF-8"?><svg id="Layer_1" xmlns="http://www.w3.org/2000/svg" width="100" height="100" viewBox="0 0 100 100"><defs><style>.cls-1{fill:#333;}.cls-1,.cls-2,.cls-3,.cls-4,.cls-5,.cls-6{stroke-width:0px;}.cls-2{fill:#1bbcfe;}.cls-3{fill:#08cf82;}.cls-4{fill:#ff7262;}.cls-5{fill:#f24f1d;}.cls-6{fill:#a259ff;}.cls-7{fill:none;opacity:.8;stroke:#02005b;stroke-miterlimit:10;stroke-width:3px;}</style></defs><circle class="cls-1" cx="48.5" cy="48.36" r="31"/><rect class="cls-3" x="39" y="54.69" width="9.5" height="12.67"/><ellipse class="cls-3" cx="39" cy="61.02" rx="9.5" ry="6.33"/><rect class="cls-6" x="39" y="42.02" width="9.5" height="12.67"/><ellipse class="cls-6" cx="39" cy="48.36" rx="9.5" ry="6.33"/><rect class="cls-5" x="39" y="29.36" width="9.5" height="12.67"/><ellipse class="cls-5" cx="39" cy="35.69" rx="9.5" ry="6.33"/><rect class="cls-4" x="48.5" y="29.36" width="9.5" height="12.67" transform="translate(106.5 71.38) rotate(-180)"/><ellipse class="cls-4" cx="58" cy="35.69" rx="9.5" ry="6.33"/><ellipse class="cls-2" cx="55.97" cy="48.36" rx="7.46" ry="6.33"/><path class="cls-7" d="M11.5,49.36c0-20.99,16.57-38,37-38"/><path class="cls-7" d="M85.5,47.36c0,20.99-16.57,38-37,38"/><path class="cls-7" d="M48.5,85.36c-20.43,0-37-16.09-37-35.95"/><path class="cls-7" d="M48.5,11.36c20.43,0,37,16.09,37,35.95"/></svg>