<?xml version="1.0" encoding="UTF-8"?><svg id="Layer_1" xmlns="http://www.w3.org/2000/svg" width="100" height="100" viewBox="0 0 100 100"><defs><style>.cls-1{fill:none;stroke:#000;stroke-miterlimit:10;stroke-width:3px;}</style></defs><path class="cls-1" d="M23.12,13.75l11,10s6,4,1,8-8,7-8,7c0,0,12,16,15,19s20,12,20,12l9-7s4-3,8,1,12,11,12,11c0,0,5,3,1,7-2.13,2.13-5.3,6.25-11,7-.93.12-1.95.08-4,0-3.79-.15-6.89-.61-9-1-1.43-.34-3.94-.97-7-2-4.7-1.59-8.01-3.21-16-7h0s-3.13-1.96-8-5c-9.8-6.5-15.54-13.09-19-18-.83-1.18-9-14-9-14-4.2-9.07-3.48-14.61-2-18,0,0,.57-1.32,6.76-10,0,0,4.24-6,9.24,0Z"/></svg>